<svg xmlns="http://www.w3.org/2000/svg" viewBox="0 0 32 32" width="32" height="32">
  <defs>
    <linearGradient id="pythonGradient" x1="0%" y1="0%" x2="100%" y2="100%">
      <stop offset="0%" style="stop-color:#3776ab;stop-opacity:1" />
      <stop offset="100%" style="stop-color:#ffd43b;stop-opacity:1" />
    </linearGradient>
  </defs>

  <!-- Fundo circular -->
  <circle cx="16" cy="16" r="15" fill="url(#pythonGradient)" stroke="#2c5aa0" stroke-width="1"/>

  <!-- Serpente Python estilizada -->
  <path d="M12 8c-1.5 0-2.5 1-2.5 2.5s1 2.5 2.5 2.5c1.5 0 2.5-1 2.5-2.5S13.5 8 12 8z" fill="#2c5aa0"/>
  <path d="M20 18c-1.5 0-2.5 1-2.5 2.5s1 2.5 2.5 2.5c1.5 0 2.5-1 2.5-2.5S21.5 18 20 18z" fill="#2c5aa0"/>

  <!-- Corpo da serpente -->
  <path d="M14 12c0-1-0.5-2-1.5-2s-1.5 1-1.5 2c0 1 0.5 2 1.5 2S14 13 14 12z" fill="#2c5aa0"/>
  <path d="M18 16c0-1-0.5-2-1.5-2s-1.5 1-1.5 2c0 1 0.5 2 1.5 2S18 17 18 16z" fill="#2c5aa0"/>

  <!-- Olhos -->
  <circle cx="11.5" cy="9.5" r="0.8" fill="white"/>
  <circle cx="19.5" cy="19.5" r="0.8" fill="white"/>
  <circle cx="11.5" cy="9.5" r="0.3" fill="#2c5aa0"/>
  <circle cx="19.5" cy="19.5" r="0.3" fill="#2c5aa0"/>
</svg>